<?xml version="1.0" standalone="no"?>
<!DOCTYPE svg PUBLIC "-//W3C//DTD SVG 20010904//EN"
 "http://www.w3.org/TR/2001/REC-SVG-20010904/DTD/svg10.dtd">
<svg version="1.0" xmlns="http://www.w3.org/2000/svg"
 width="197.000000pt" height="197.000000pt" viewBox="0 0 197.000000 197.000000"
 preserveAspectRatio="xMidYMid meet">
<metadata>
Created by potrace 1.11, written by Peter Selinger 2001-2013
</metadata>
<g transform="translate(0.000000,197.000000) scale(0.100000,-0.100000)"
fill="#000000" stroke="none">
<path d="M330 1952 c-45 -24 -92 -86 -121 -159 -35 -87 -34 -227 2 -303 15
-30 49 -81 78 -113 28 -32 54 -69 57 -84 7 -27 -4 -396 -21 -703 -2 -36 -7
-173 -10 -305 -8 -271 -7 -276 58 -278 64 -2 72 15 72 156 -1 121 -14 516 -20
592 -8 98 -17 524 -12 546 4 13 23 42 43 64 64 70 82 98 104 165 38 112 16
242 -61 356 -50 73 -110 97 -169 66z"/>
<path d="M1589 1939 c0 -13 -2 -31 -3 -39 -19 -100 -28 -341 -15 -405 5 -27
24 -72 42 -100 l32 -50 -1 -170 c-1 -93 -4 -240 -7 -325 -15 -364 -22 -602
-22 -703 0 -96 2 -110 19 -123 32 -23 83 -18 102 11 16 25 16 152 -1 565 -10
254 -18 531 -19 630 0 113 1 116 31 158 46 64 57 124 49 276 -14 268 -33 369
-36 191 -2 -101 -5 -181 -9 -230 -1 -13 -4 -16 -11 -9 -6 6 -13 75 -16 154 -8
191 -22 223 -24 55 -1 -71 -3 -143 -5 -160 -1 -16 -3 -37 -4 -45 -1 -9 -4 -11
-11 -4 -10 10 -17 87 -20 249 -3 119 -16 77 -20 -64 -2 -77 -5 -138 -9 -181
-1 -8 -4 -10 -10 -5 -5 6 -12 84 -15 174 -3 90 -8 166 -11 169 -3 3 -5 -6 -6
-19z"/>
<path d="M591 1060 c-9 -6 -8 -72 1 -85 4 -6 160 -10 440 -9 238 1 436 2 439
3 4 1 5 44 0 86 -1 10 -866 15 -880 5z"/>
</g>
</svg>
