<?xml version="1.0" encoding="utf-8"?>
<!-- Generator: Adobe Illustrator 21.0.0, SVG Export Plug-In . SVG Version: 6.00 Build 0)  -->
<svg version="1.1" id="header" xmlns="http://www.w3.org/2000/svg" xmlns:xlink="http://www.w3.org/1999/xlink" x="0px" y="0px"
	 viewBox="0 0 720 1152" style="enable-background:new 0 0 720 1152;" xml:space="preserve">
<style type="text/css">
	.st0{enable-background:new    ;}
	.st1{fill:#B5D7AB;}
	.st2{fill:#FFFFFF;}
</style>
<g class="st0">
	<path class="st1" d="M103.2,466.8v32.5h-6.7v-25.7l-7.1,4.4l-3-4.6l10.8-6.5H103.2z"/>
	<path class="st1" d="M131.9,485.6c1.1,1.4,1.6,3.1,1.6,5c0,1.8-0.5,3.4-1.5,4.8c-1,1.5-2.4,2.6-4.3,3.4c-1.9,0.8-4,1.3-6.6,1.3
		c-2.4,0-4.6-0.4-6.4-1.3c-1.8-0.8-3.2-2-4.2-3.4c-1-1.4-1.5-3-1.5-4.7c0-3.7,2-6.4,6.1-8.2c-3.2-1.8-4.8-4.4-4.8-7.7
		c0-1.7,0.5-3.3,1.4-4.6s2.3-2.3,3.9-3c1.7-0.7,3.5-1.1,5.6-1.1c3.1,0,5.8,0.7,7.8,2.2c2.1,1.5,3.1,3.5,3.1,6.1c0,3-1.8,5.5-5.3,7.3
		C129.2,482.9,130.8,484.1,131.9,485.6z M125.2,493.8c0.9-0.8,1.4-1.9,1.4-3.3c0-1.4-0.4-2.5-1.2-3.3c-0.8-0.8-2.2-1.6-4.3-2.3
		l-1.5-0.5c-2.4,1.3-3.6,3.3-3.6,6c0,1.4,0.5,2.6,1.4,3.4c1,0.8,2.3,1.3,4,1.3C123,495.1,124.3,494.7,125.2,493.8z M118.2,471.9
		c-0.8,0.7-1.2,1.7-1.2,3c0,1.2,0.4,2.1,1.1,2.9c0.7,0.7,1.8,1.4,3.4,2l1,0.3c1.2-0.7,2-1.5,2.5-2.3s0.7-1.8,0.7-2.9
		c0-1.2-0.4-2.2-1.1-2.9c-0.7-0.7-1.8-1.1-3.1-1.1S119,471.2,118.2,471.9z"/>
	<path class="st1" d="M165.5,473.8c1.4,0.5,2.7,1.3,3.9,2.3l-3,4c-0.8-0.6-1.6-1.1-2.4-1.4c-0.8-0.3-1.6-0.4-2.6-0.4
		c-3.6,0-5.4,2.8-5.4,8.4c0,2.8,0.5,4.9,1.4,6.1c0.9,1.2,2.3,1.8,4,1.8c0.9,0,1.7-0.1,2.5-0.4c0.7-0.3,1.6-0.7,2.6-1.4l3,4.3
		c-2.4,2-5.2,3-8.4,3c-2.5,0-4.7-0.5-6.5-1.6c-1.8-1.1-3.3-2.6-4.3-4.7c-1-2-1.5-4.4-1.5-7.1s0.5-5.1,1.5-7.2c1-2.1,2.4-3.7,4.3-4.8
		c1.8-1.2,4-1.7,6.4-1.7C162.6,473,164.2,473.3,165.5,473.8z"/>
	<path class="st1" d="M192.1,476.6c2.2,2.4,3.2,5.7,3.2,10c0,2.7-0.5,5.1-1.5,7.1c-1,2-2.4,3.6-4.2,4.7c-1.8,1.1-4,1.7-6.5,1.7
		c-3.8,0-6.8-1.2-9-3.6c-2.2-2.4-3.3-5.7-3.3-10c0-2.7,0.5-5.1,1.5-7.1c1-2,2.4-3.6,4.2-4.7c1.8-1.1,4-1.7,6.6-1.7
		C186.9,473,189.9,474.2,192.1,476.6z M179.2,480.2c-0.9,1.4-1.3,3.5-1.3,6.4c0,2.9,0.4,5,1.3,6.4c0.9,1.4,2.1,2,3.8,2
		c1.7,0,3-0.7,3.8-2c0.9-1.4,1.3-3.5,1.3-6.4c0-2.9-0.4-5-1.3-6.4c-0.8-1.4-2.1-2-3.8-2C181.4,478.1,180.1,478.8,179.2,480.2z"/>
	<path class="st1" d="M233,475.1c1.2,1.4,1.9,3.3,1.9,5.6v18.6H228v-17.4c0-2.5-0.8-3.8-2.5-3.8c-0.9,0-1.7,0.3-2.4,0.9
		c-0.7,0.6-1.4,1.5-2.1,2.7v17.6h-6.8v-17.4c0-2.5-0.8-3.8-2.5-3.8c-0.9,0-1.7,0.3-2.4,0.9c-0.7,0.6-1.3,1.5-2,2.7v17.6h-6.8v-25.5
		h5.9l0.5,3.2c1-1.3,2-2.3,3.3-2.9c1.2-0.7,2.6-1,4.2-1c1.4,0,2.7,0.4,3.8,1.1c1.1,0.7,1.8,1.7,2.3,3.1c1.1-1.4,2.2-2.4,3.4-3.1
		c1.2-0.7,2.6-1,4.2-1C230.1,473,231.8,473.7,233,475.1z"/>
	<path class="st1" d="M273.9,475.1c1.2,1.4,1.9,3.3,1.9,5.6v18.6h-6.8v-17.4c0-2.5-0.8-3.8-2.5-3.8c-0.9,0-1.7,0.3-2.4,0.9
		c-0.7,0.6-1.4,1.5-2.1,2.7v17.6h-6.8v-17.4c0-2.5-0.8-3.8-2.5-3.8c-0.9,0-1.7,0.3-2.4,0.9c-0.7,0.6-1.3,1.5-2,2.7v17.6h-6.8v-25.5
		h5.9l0.5,3.2c1-1.3,2-2.3,3.3-2.9c1.2-0.7,2.6-1,4.2-1c1.4,0,2.7,0.4,3.8,1.1c1.1,0.7,1.8,1.7,2.3,3.1c1.1-1.4,2.2-2.4,3.4-3.1
		c1.2-0.7,2.6-1,4.2-1C271,473,272.6,473.7,273.9,475.1z"/>
	<path class="st1" d="M303.7,488.6h-16c0.2,2.3,0.9,4,1.9,4.9c1,1,2.4,1.4,4.2,1.4c1.1,0,2.1-0.2,3.1-0.5c1-0.4,2-0.9,3.1-1.7
		l2.8,3.9c-2.9,2.3-6.1,3.5-9.7,3.5c-4,0-7.1-1.2-9.3-3.6c-2.2-2.4-3.2-5.7-3.2-9.8c0-2.6,0.5-4.9,1.4-7c0.9-2.1,2.2-3.7,4-4.9
		c1.8-1.2,3.8-1.8,6.2-1.8c3.6,0,6.5,1.1,8.5,3.4c2,2.3,3,5.5,3,9.5C303.8,486.3,303.8,487.2,303.7,488.6z M297,484.1
		c0-4.2-1.5-6.4-4.6-6.4c-1.4,0-2.5,0.5-3.3,1.6c-0.8,1-1.3,2.7-1.4,5.1h9.3V484.1z"/>
	<path class="st1" d="M324.6,473.5l-1.2,6.6c-0.9-0.2-1.7-0.3-2.3-0.3c-1.5,0-2.7,0.5-3.5,1.6c-0.8,1.1-1.5,2.7-2,4.8v13.2h-6.8
		v-25.5h5.9l0.6,5c0.6-1.8,1.5-3.2,2.7-4.2c1.2-1,2.5-1.5,4-1.5C322.8,473.1,323.6,473.2,324.6,473.5z"/>
	<path class="st1" d="M338.5,500.1v1.7c1.6,0.2,2.9,0.7,3.7,1.5c0.8,0.8,1.2,1.9,1.2,3.2c0,1.6-0.6,2.9-1.9,3.9
		c-1.3,1-2.9,1.5-5,1.5c-1.1,0-2-0.1-2.9-0.4c-0.9-0.3-1.6-0.6-2.2-1l1.6-3.3c1,0.5,2,0.8,3.1,0.8c1.5,0,2.3-0.5,2.3-1.5
		c0-0.6-0.3-1.1-1-1.3c-0.7-0.3-1.8-0.4-3.4-0.4l0.6-4.7c-3-0.5-5.4-2-7.1-4.3c-1.7-2.3-2.5-5.3-2.5-8.8c0-2.7,0.5-5.1,1.5-7.2
		c1-2.1,2.4-3.7,4.3-4.8c1.8-1.2,4-1.7,6.4-1.7c1.7,0,3.2,0.2,4.6,0.7c1.4,0.5,2.7,1.3,3.9,2.3l-3,4c-0.8-0.6-1.6-1.1-2.4-1.4
		c-0.8-0.3-1.6-0.4-2.6-0.4c-3.6,0-5.4,2.8-5.4,8.4c0,2.8,0.5,4.9,1.4,6.1c0.9,1.2,2.3,1.8,4,1.8c0.9,0,1.7-0.1,2.5-0.4
		c0.7-0.3,1.6-0.7,2.6-1.4l3,4.3C343.5,498.9,341.1,499.8,338.5,500.1z"/>
	<path class="st1" d="M369,494.4c0.3,0.5,0.8,0.8,1.4,1L369,500c-1.5-0.1-2.7-0.5-3.7-1.1c-0.9-0.6-1.7-1.5-2.2-2.7
		c-1.7,2.6-4.2,3.9-7.7,3.9c-2.5,0-4.6-0.7-6-2.2s-2.2-3.4-2.2-5.7c0-2.8,1-4.9,3-6.4c2-1.5,4.9-2.2,8.7-2.2h2.9v-1.3
		c0-1.6-0.4-2.7-1.1-3.3c-0.7-0.6-1.9-0.9-3.5-0.9c-1.8,0-4,0.5-6.7,1.3l-1.5-4.6c3.2-1.3,6.3-1.9,9.4-1.9c3.5,0,6,0.7,7.7,2.2
		s2.5,3.7,2.5,6.7v10.3C368.6,493.2,368.7,494,369,494.4z M361.9,492.3v-4.9h-2.3c-3.7,0-5.5,1.4-5.5,4.1c0,1.1,0.3,2,0.8,2.6
		c0.6,0.6,1.4,0.9,2.4,0.9C359.3,495.2,360.8,494.2,361.9,492.3z"/>
	<path class="st1" d="M394.9,475.1c1.3,1.4,1.9,3.3,1.9,5.7v18.6H390v-17.4c0-1.4-0.2-2.4-0.7-2.9c-0.5-0.6-1.2-0.8-2.1-0.8
		c-1,0-1.8,0.3-2.6,0.9c-0.8,0.6-1.6,1.5-2.3,2.7v17.6h-6.8v-25.5h5.9l0.5,3.2c1.1-1.3,2.2-2.3,3.5-3c1.3-0.7,2.7-1,4.3-1
		C391.9,473,393.7,473.7,394.9,475.1z"/>
	<path class="st1" d="M418.6,498.1c-0.9,0.6-2,1.1-3.2,1.5c-1.2,0.3-2.3,0.5-3.5,0.5c-2.6,0-4.6-0.8-6-2.3c-1.3-1.5-2-3.6-2-6.5
		v-12.7h-3.8v-4.8h3.8v-5.6l6.8-0.8v6.4h5.9l-0.7,4.8h-5.2v12.6c0,1.2,0.2,2.1,0.6,2.7c0.4,0.5,1.1,0.8,1.9,0.8s1.8-0.3,2.9-0.9
		L418.6,498.1z"/>
	<path class="st1" d="M439.4,476.1l-2.6,3.9c-2.2-1.3-4.3-2-6.4-2c-1.1,0-2,0.2-2.6,0.6c-0.6,0.4-0.9,1-0.9,1.7
		c0,0.5,0.1,0.9,0.4,1.3c0.3,0.4,0.8,0.7,1.5,1c0.8,0.3,1.9,0.7,3.4,1.2c2.7,0.7,4.7,1.7,6,3c1.3,1.2,2,2.9,2,5.1
		c0,1.7-0.5,3.2-1.5,4.4c-1,1.3-2.3,2.2-4,2.9s-3.5,1-5.6,1c-2.2,0-4.1-0.3-5.9-1s-3.3-1.6-4.5-2.7l3.4-3.8c2.2,1.7,4.4,2.5,6.8,2.5
		c1.3,0,2.3-0.2,3.1-0.7c0.8-0.5,1.1-1.2,1.1-2c0-0.7-0.1-1.2-0.4-1.6c-0.3-0.4-0.8-0.7-1.6-1.1c-0.8-0.3-2-0.7-3.6-1.2
		c-2.6-0.7-4.5-1.7-5.7-3c-1.2-1.3-1.9-2.9-1.9-4.8c0-1.4,0.4-2.7,1.3-3.9c0.8-1.2,2-2.1,3.5-2.7c1.5-0.7,3.3-1,5.3-1
		C433.7,473,436.8,474,439.4,476.1z"/>
</g>
<g class="st0">
	<path class="st2" d="M105.9,532.1l-8.7,25h-1.4l-9.2-25h1.2l8.7,24.1l8.3-24.1H105.9z"/>
	<path class="st2" d="M127.9,535c1.8,2.2,2.7,5.4,2.7,9.5c0,4.1-0.9,7.3-2.7,9.6c-1.8,2.3-4.2,3.5-7.3,3.5c-3.1,0-5.6-1.1-7.3-3.4
		c-1.8-2.3-2.7-5.5-2.7-9.5c0-4.1,0.9-7.3,2.7-9.6c1.8-2.3,4.2-3.4,7.3-3.4C123.7,531.7,126.1,532.8,127.9,535z M114.1,535.7
		c-1.6,2.1-2.4,5.1-2.4,8.9c0,3.8,0.8,6.7,2.3,8.8c1.6,2.1,3.7,3.1,6.5,3.1c2.8,0,4.9-1,6.5-3.1c1.6-2.1,2.4-5.1,2.4-9
		c0-3.8-0.8-6.7-2.3-8.8c-1.6-2.1-3.7-3.1-6.5-3.1C117.8,532.6,115.6,533.7,114.1,535.7z"/>
	<path class="st2" d="M156.2,557.1h-1V552c-0.9,1.7-2.1,3.1-3.6,4.1s-3.1,1.5-5.1,1.5c-2.2,0-3.9-0.7-5.2-2
		c-1.2-1.3-1.9-3.2-1.9-5.7v-17.8h1.1v17.7c0,2.3,0.5,3.9,1.6,5.1c1,1.1,2.6,1.7,4.6,1.7c1.8,0,3.4-0.5,4.8-1.5
		c1.4-1,2.6-2.5,3.6-4.3v-18.6h1.1V557.1z"/>
	<path class="st2" d="M176.8,532.3c1.2,0.4,2.3,1.1,3.4,2l-0.6,0.8c-1.1-0.9-2.2-1.5-3.2-1.9s-2.2-0.6-3.5-0.6
		c-1.9,0-3.5,0.5-4.7,1.4c-1.2,0.9-1.9,2.2-1.9,3.8c0,1.4,0.5,2.6,1.5,3.4c1,0.8,2.8,1.5,5.3,2.2c2,0.5,3.5,1.1,4.6,1.7
		c1.1,0.6,1.9,1.3,2.4,2.2c0.5,0.9,0.7,2,0.7,3.4c0,2.1-0.8,3.7-2.3,5c-1.5,1.3-3.5,1.9-5.9,1.9c-1.8,0-3.3-0.3-4.7-0.8
		c-1.3-0.5-2.6-1.3-3.8-2.4l0.6-0.7c1.2,1,2.4,1.7,3.5,2.2c1.2,0.5,2.6,0.7,4.3,0.7c2.1,0,3.7-0.5,5.1-1.6c1.3-1,2-2.5,2-4.4
		c0-1.2-0.2-2.2-0.7-3c-0.4-0.8-1.1-1.4-2.1-1.9c-1-0.5-2.4-1-4.3-1.5c-2.7-0.7-4.6-1.5-5.8-2.5c-1.1-1-1.7-2.3-1.7-4
		c0-1.8,0.7-3.3,2.2-4.4c1.5-1.2,3.3-1.7,5.4-1.7C174.3,531.7,175.6,531.9,176.8,532.3z"/>
	<path class="st2" d="M218.5,555.4c0.3,0.7,0.9,1.2,1.8,1.5l-0.3,0.8c-1-0.3-1.7-0.8-2.2-1.6c-0.5-0.7-0.7-1.8-0.7-3.3
		c-1.8,3.2-4.5,4.9-8.1,4.9c-2.3,0-4.2-0.7-5.5-2c-1.3-1.3-2-3.1-2-5.4c0-2.5,0.9-4.4,2.7-5.8c1.8-1.4,4.2-2.1,7.2-2.1h5.7v-3
		c0-2.2-0.5-3.9-1.5-5c-1-1.1-2.6-1.7-4.9-1.7c-2,0-4.3,0.5-6.9,1.6l-0.3-0.9c2.6-1.1,5-1.6,7.2-1.6c2.6,0,4.5,0.6,5.7,1.9
		c1.2,1.3,1.8,3.2,1.8,5.7v12.6C218,553.5,218.2,554.7,218.5,555.4z M213.7,555.3c1.3-0.9,2.4-2.2,3.2-3.9v-8.1h-5.5
		c-2.8,0-5,0.6-6.5,1.8c-1.6,1.2-2.3,2.9-2.3,5.2c0,2,0.6,3.6,1.7,4.7c1.1,1.1,2.7,1.7,4.7,1.7C210.8,556.6,212.4,556.2,213.7,555.3
		z"/>
	<path class="st2" d="M240.9,532.2c1,0.4,2,1,2.9,1.8l-0.6,0.7c-0.8-0.7-1.7-1.3-2.7-1.6c-0.9-0.4-2-0.5-3.2-0.5
		c-2.7,0-4.9,1.1-6.6,3.2c-1.7,2.1-2.5,5.1-2.5,9c0,3.8,0.8,6.7,2.5,8.8c1.7,2.1,3.8,3.1,6.5,3.1c2.3,0,4.4-0.8,6.1-2.3l0.6,0.7
		c-2,1.7-4.2,2.6-6.7,2.6c-2,0-3.8-0.5-5.3-1.5c-1.5-1-2.7-2.5-3.6-4.4c-0.9-1.9-1.3-4.2-1.3-6.9c0-2.7,0.4-5,1.3-7
		c0.8-2,2-3.5,3.5-4.6c1.5-1.1,3.3-1.6,5.3-1.6C238.7,531.7,239.9,531.8,240.9,532.2z"/>
	<path class="st2" d="M262.5,532.2c1,0.4,2,1,2.9,1.8l-0.6,0.7c-0.8-0.7-1.7-1.3-2.7-1.6c-0.9-0.4-2-0.5-3.2-0.5
		c-2.7,0-4.9,1.1-6.6,3.2c-1.7,2.1-2.5,5.1-2.5,9c0,3.8,0.8,6.7,2.5,8.8c1.7,2.1,3.8,3.1,6.5,3.1c2.3,0,4.4-0.8,6.1-2.3l0.6,0.7
		c-2,1.7-4.2,2.6-6.7,2.6c-2,0-3.8-0.5-5.3-1.5c-1.5-1-2.7-2.5-3.6-4.4c-0.9-1.9-1.3-4.2-1.3-6.9c0-2.7,0.4-5,1.3-7
		c0.8-2,2-3.5,3.5-4.6c1.5-1.1,3.3-1.6,5.3-1.6C260.3,531.7,261.5,531.8,262.5,532.2z"/>
	<path class="st2" d="M289.3,557.1h-1V552c-0.9,1.7-2.1,3.1-3.6,4.1s-3.1,1.5-5.1,1.5c-2.2,0-3.9-0.7-5.2-2
		c-1.2-1.3-1.9-3.2-1.9-5.7v-17.8h1.1v17.7c0,2.3,0.5,3.9,1.6,5.1c1,1.1,2.6,1.7,4.6,1.7c1.8,0,3.4-0.5,4.8-1.5
		c1.4-1,2.6-2.5,3.6-4.3v-18.6h1.1V557.1z"/>
	<path class="st2" d="M317.1,545.3h-17.5c0.1,3.7,1,6.5,2.6,8.5c1.6,1.9,3.7,2.9,6.3,2.9c1.4,0,2.7-0.2,3.7-0.7
		c1.1-0.4,2.2-1.1,3.3-2.1l0.6,0.8c-1.2,1-2.3,1.7-3.5,2.2c-1.2,0.5-2.6,0.7-4.1,0.7c-3.1,0-5.5-1.1-7.3-3.4
		c-1.8-2.2-2.7-5.4-2.7-9.4c0-2.7,0.4-5,1.2-7c0.8-2,1.9-3.5,3.4-4.6c1.4-1.1,3.1-1.6,5.1-1.6c3,0,5.3,1.1,6.8,3.2
		c1.5,2.1,2.3,5,2.3,8.6C317.2,544,317.2,544.6,317.1,545.3z M316.1,543.1c0-3.2-0.7-5.7-2-7.6c-1.3-1.9-3.3-2.8-6-2.8
		c-2.5,0-4.5,1-6.1,3c-1.6,2-2.4,4.9-2.5,8.7h16.5V543.1z"/>
	<path class="st2" d="M327.4,522.5c0.2,0.2,0.3,0.4,0.3,0.7c0,0.3-0.1,0.5-0.3,0.7c-0.2,0.2-0.4,0.3-0.7,0.3c-0.3,0-0.5-0.1-0.7-0.3
		c-0.2-0.2-0.3-0.4-0.3-0.7c0-0.3,0.1-0.5,0.3-0.7c0.2-0.2,0.4-0.3,0.7-0.3C327,522.3,327.3,522.3,327.4,522.5z M327.2,532.1v25
		h-1.1v-25H327.2z"/>
	<path class="st2" d="M339.3,556.6c-0.6-0.7-0.9-1.6-0.9-3v-31.9l1.1-0.1v32c0,2,0.8,3,2.5,3c0.7,0,1.3-0.1,1.9-0.4l0.3,0.9
		c-0.8,0.3-1.6,0.5-2.3,0.5C340.8,557.6,339.9,557.3,339.3,556.6z"/>
	<path class="st2" d="M352.6,556.6c-0.6-0.7-0.9-1.6-0.9-3v-31.9l1.1-0.1v32c0,2,0.8,3,2.5,3c0.7,0,1.3-0.1,1.9-0.4l0.3,0.9
		c-0.8,0.3-1.6,0.5-2.3,0.5C354.1,557.6,353.2,557.3,352.6,556.6z"/>
	<path class="st2" d="M381.4,545.3h-17.5c0.1,3.7,1,6.5,2.6,8.5c1.6,1.9,3.7,2.9,6.3,2.9c1.4,0,2.7-0.2,3.7-0.7
		c1.1-0.4,2.2-1.1,3.3-2.1l0.6,0.8c-1.2,1-2.3,1.7-3.5,2.2c-1.2,0.5-2.6,0.7-4.1,0.7c-3.1,0-5.5-1.1-7.3-3.4
		c-1.8-2.2-2.7-5.4-2.7-9.4c0-2.7,0.4-5,1.2-7c0.8-2,1.9-3.5,3.3-4.6c1.4-1.1,3.1-1.6,5.1-1.6c3,0,5.3,1.1,6.8,3.2
		c1.5,2.1,2.3,5,2.3,8.6C381.5,544,381.5,544.6,381.4,545.3z M380.4,543.1c0-3.2-0.7-5.7-2-7.6c-1.3-1.9-3.3-2.8-6-2.8
		c-2.5,0-4.5,1-6.1,3c-1.6,2-2.4,4.9-2.5,8.7h16.5V543.1z"/>
	<path class="st2" d="M405.7,533.6c1.1,1.3,1.7,3.2,1.7,5.7v17.8h-1.1v-17.7c0-4.6-1.9-6.8-5.6-6.8c-1.9,0-3.6,0.5-5.1,1.5
		c-1.4,1-2.8,2.5-4.1,4.5v18.5h-1.1v-25h0.9l0.1,5.1c2.5-3.7,5.6-5.6,9.2-5.6C402.9,531.7,404.6,532.3,405.7,533.6z"/>
	<path class="st2" d="M428.4,556.2c-1.5,1-3.2,1.4-4.9,1.4c-1.7,0-3-0.5-4-1.6c-0.9-1-1.4-2.6-1.4-4.6v-18.4H414v-1h4.1v-6.3
		l1.1-0.1v6.4h6.9l-0.2,1h-6.7v18.4c0,1.7,0.4,3,1.1,3.9c0.7,0.9,1.8,1.3,3.3,1.3c1.5,0,2.9-0.4,4.3-1.3L428.4,556.2z"/>
</g>
<g class="st0">
	<path class="st2" d="M107.5,579.7v35.3h-0.9l-0.1-4.3c-1.7,3.2-4.4,4.8-7.9,4.8c-2.8,0-5.1-1.1-6.7-3.4c-1.7-2.3-2.5-5.5-2.5-9.5
		c0-2.6,0.4-4.8,1.2-6.8c0.8-2,1.9-3.5,3.4-4.6c1.5-1.1,3.2-1.6,5.2-1.6c3.2,0,5.7,1.3,7.4,4v-14L107.5,579.7z M103.2,613.1
		c1.2-0.9,2.3-2.3,3.2-4v-14.2c-1.9-2.9-4.3-4.4-7.4-4.4c-1.7,0-3.3,0.5-4.6,1.5c-1.3,1-2.3,2.4-3,4.2c-0.7,1.8-1.1,4-1.1,6.4
		c0,3.8,0.7,6.7,2.2,8.8c1.5,2.1,3.5,3.1,6,3.1C100.4,614.5,102,614.1,103.2,613.1z"/>
	<path class="st2" d="M133.4,613.3c0.3,0.7,0.9,1.2,1.8,1.5l-0.3,0.8c-1-0.3-1.7-0.8-2.2-1.6c-0.5-0.7-0.7-1.8-0.7-3.3
		c-1.8,3.2-4.5,4.9-8.1,4.9c-2.3,0-4.2-0.7-5.5-2c-1.3-1.3-2-3.1-2-5.4c0-2.5,0.9-4.5,2.7-5.8c1.8-1.4,4.2-2.1,7.2-2.1h5.7v-3
		c0-2.2-0.5-3.9-1.5-5c-1-1.1-2.6-1.7-4.9-1.7c-2,0-4.3,0.5-6.9,1.6l-0.3-0.9c2.6-1.1,5-1.6,7.2-1.6c2.6,0,4.5,0.6,5.7,1.9
		c1.2,1.3,1.8,3.2,1.8,5.7v12.6C132.9,611.4,133.1,612.6,133.4,613.3z M128.6,613.2c1.3-0.9,2.4-2.2,3.2-3.9v-8.1h-5.5
		c-2.8,0-5,0.6-6.5,1.8c-1.6,1.2-2.3,2.9-2.3,5.2c0,2,0.6,3.6,1.7,4.7s2.7,1.7,4.7,1.7C125.8,614.5,127.4,614.1,128.6,613.2z"/>
	<path class="st2" d="M159.6,591.5c1.1,1.3,1.7,3.2,1.7,5.7v17.8h-1.1v-17.7c0-4.6-1.9-6.8-5.6-6.8c-1.9,0-3.6,0.5-5.1,1.5
		c-1.4,1-2.8,2.5-4.1,4.5v18.5h-1.1v-25h0.9l0.1,5.1c2.5-3.7,5.6-5.6,9.2-5.6C156.8,589.6,158.4,590.2,159.6,591.5z"/>
	<path class="st2" d="M181.6,590.2c1.2,0.4,2.3,1.1,3.4,2l-0.6,0.8c-1.1-0.9-2.2-1.5-3.2-1.9s-2.2-0.6-3.5-0.6
		c-1.9,0-3.5,0.5-4.7,1.4c-1.2,0.9-1.9,2.2-1.9,3.8c0,1.4,0.5,2.6,1.5,3.4c1,0.8,2.8,1.5,5.3,2.2c2,0.5,3.5,1.1,4.6,1.7
		s1.9,1.3,2.4,2.2c0.5,0.9,0.7,2,0.7,3.4c0,2.1-0.8,3.7-2.3,5c-1.5,1.3-3.5,1.9-5.9,1.9c-1.8,0-3.3-0.3-4.7-0.8
		c-1.3-0.5-2.6-1.3-3.8-2.4l0.6-0.7c1.2,1,2.4,1.7,3.5,2.2c1.2,0.5,2.6,0.7,4.3,0.7c2.1,0,3.7-0.5,5.1-1.6c1.3-1,2-2.5,2-4.4
		c0-1.2-0.2-2.2-0.7-3c-0.4-0.8-1.1-1.4-2.1-1.9c-1-0.5-2.4-1-4.3-1.5c-2.7-0.7-4.6-1.5-5.8-2.5c-1.1-1-1.7-2.3-1.7-4
		c0-1.8,0.7-3.3,2.2-4.4c1.5-1.2,3.3-1.7,5.4-1.7C179.1,589.6,180.5,589.8,181.6,590.2z"/>
	<path class="st2" d="M224,591.5c1.1,1.3,1.7,3.2,1.7,5.7v17.8h-1.1v-17.7c0-4.6-1.9-6.8-5.6-6.8c-1.9,0-3.6,0.5-5.1,1.5
		c-1.4,1-2.8,2.5-4.1,4.5v18.5h-1.1v-25h0.9l0.1,5.1c2.5-3.7,5.6-5.6,9.2-5.6C221.2,589.6,222.9,590.2,224,591.5z"/>
	<path class="st2" d="M251.9,592.9c1.8,2.2,2.7,5.4,2.7,9.5s-0.9,7.3-2.7,9.6c-1.8,2.3-4.2,3.5-7.3,3.5c-3.1,0-5.6-1.1-7.3-3.4
		c-1.8-2.3-2.7-5.5-2.7-9.5c0-4.1,0.9-7.3,2.7-9.6c1.8-2.3,4.2-3.4,7.3-3.4C247.7,589.6,250.1,590.7,251.9,592.9z M238.1,593.7
		c-1.6,2.1-2.4,5.1-2.4,8.9c0,3.8,0.8,6.7,2.3,8.8c1.6,2.1,3.7,3.1,6.5,3.1c2.8,0,4.9-1,6.5-3.1c1.6-2.1,2.4-5.1,2.4-9
		c0-3.8-0.8-6.7-2.3-8.8c-1.6-2.1-3.7-3.1-6.5-3.1C241.8,590.5,239.7,591.6,238.1,593.7z"/>
	<path class="st2" d="M273.7,614.1c-1.5,1-3.2,1.4-4.9,1.4c-1.7,0-3-0.5-4-1.6c-0.9-1-1.4-2.6-1.4-4.6V591h-4.1v-1h4.1v-6.3l1.1-0.1
		v6.4h6.9l-0.2,1h-6.7v18.4c0,1.7,0.4,3,1.1,3.9c0.7,0.9,1.8,1.3,3.3,1.3c1.5,0,2.9-0.4,4.3-1.3L273.7,614.1z"/>
	<path class="st2" d="M290.3,589.8l-0.2,0.9c-0.7-0.2-1.4-0.2-2.2-0.2c-1.8,0-3.3,0.6-4.5,1.9c-1.2,1.3-2.1,3.3-2.9,6v16.6h-1.1v-25
		h0.9l0,6.2c0.7-2.3,1.7-4,2.9-5.1c1.2-1.1,2.8-1.6,4.7-1.6C288.7,589.6,289.5,589.7,290.3,589.8z"/>
	<path class="st2" d="M311.8,603.2h-17.5c0.1,3.7,1,6.5,2.6,8.5c1.6,1.9,3.7,2.9,6.3,2.9c1.4,0,2.7-0.2,3.7-0.7
		c1.1-0.4,2.2-1.1,3.3-2.1l0.6,0.8c-1.2,1-2.3,1.7-3.5,2.2c-1.2,0.5-2.6,0.7-4.1,0.7c-3.1,0-5.5-1.1-7.3-3.4
		c-1.8-2.2-2.7-5.4-2.7-9.4c0-2.7,0.4-5,1.2-7c0.8-2,1.9-3.5,3.4-4.6c1.4-1.1,3.1-1.6,5.1-1.6c3,0,5.3,1.1,6.8,3.2s2.3,5,2.3,8.6
		C311.9,601.9,311.9,602.5,311.8,603.2z M310.8,601c0-3.2-0.7-5.7-2-7.6c-1.3-1.9-3.3-2.8-6-2.8c-2.5,0-4.5,1-6.1,3
		c-1.6,2-2.4,4.9-2.5,8.7h16.5V601z"/>
	<path class="st2" d="M350.4,591.5c1.1,1.3,1.7,3.2,1.7,5.7v17.8H351v-17.7c0-4.6-1.9-6.8-5.6-6.8c-1.9,0-3.6,0.5-5.1,1.5
		c-1.4,1-2.8,2.5-4.1,4.5v18.5h-1.1v-25h0.9l0.1,5.1c2.5-3.7,5.6-5.6,9.2-5.6C347.6,589.6,349.3,590.2,350.4,591.5z"/>
	<path class="st2" d="M378.3,592.9c1.8,2.2,2.7,5.4,2.7,9.5s-0.9,7.3-2.7,9.6c-1.8,2.3-4.2,3.5-7.3,3.5c-3.1,0-5.6-1.1-7.3-3.4
		c-1.8-2.3-2.7-5.5-2.7-9.5c0-4.1,0.9-7.3,2.7-9.6c1.8-2.3,4.2-3.4,7.3-3.4C374.1,589.6,376.5,590.7,378.3,592.9z M364.4,593.7
		c-1.6,2.1-2.4,5.1-2.4,8.9c0,3.8,0.8,6.7,2.3,8.8s3.7,3.1,6.5,3.1c2.8,0,4.9-1,6.5-3.1c1.6-2.1,2.4-5.1,2.4-9
		c0-3.8-0.8-6.7-2.3-8.8c-1.6-2.1-3.7-3.1-6.5-3.1C368.2,590.5,366,591.6,364.4,593.7z"/>
	<path class="st2" d="M406.6,615.1h-1v-5.1c-0.9,1.7-2.1,3.1-3.6,4.1c-1.4,1-3.1,1.5-5.1,1.5c-2.2,0-3.9-0.7-5.2-2
		c-1.2-1.3-1.9-3.2-1.9-5.7V590h1.1v17.7c0,2.3,0.5,3.9,1.6,5.1s2.6,1.7,4.6,1.7c1.8,0,3.4-0.5,4.8-1.5c1.4-1,2.6-2.5,3.6-4.3V590
		h1.1V615.1z"/>
	<path class="st2" d="M432.6,590l-8.7,25h-1.4l-9.2-25h1.2l8.7,24.1l8.3-24.1H432.6z"/>
	<path class="st2" d="M455.9,603.2h-17.5c0.1,3.7,1,6.5,2.6,8.5c1.6,1.9,3.7,2.9,6.3,2.9c1.4,0,2.7-0.2,3.7-0.7
		c1.1-0.4,2.2-1.1,3.3-2.1l0.6,0.8c-1.2,1-2.3,1.7-3.5,2.2c-1.2,0.5-2.6,0.7-4.1,0.7c-3.1,0-5.5-1.1-7.3-3.4
		c-1.8-2.2-2.7-5.4-2.7-9.4c0-2.7,0.4-5,1.2-7c0.8-2,1.9-3.5,3.3-4.6c1.4-1.1,3.1-1.6,5.1-1.6c3,0,5.3,1.1,6.8,3.2s2.3,5,2.3,8.6
		C456,601.9,455.9,602.5,455.9,603.2z M454.9,601c0-3.2-0.7-5.7-2-7.6c-1.3-1.9-3.3-2.8-6-2.8c-2.5,0-4.5,1-6.1,3s-2.4,4.9-2.5,8.7
		h16.5V601z"/>
	<path class="st2" d="M465.6,614.5c-0.6-0.7-0.9-1.6-0.9-3v-31.9l1.1-0.1v32c0,2,0.8,3,2.5,3c0.7,0,1.3-0.1,1.9-0.4l0.3,0.9
		c-0.8,0.3-1.6,0.5-2.3,0.5C467.1,615.5,466.2,615.2,465.6,614.5z"/>
	<path class="st2" d="M478.9,614.5c-0.6-0.7-0.9-1.6-0.9-3v-31.9l1.1-0.1v32c0,2,0.8,3,2.5,3c0.7,0,1.3-0.1,1.9-0.4l0.3,0.9
		c-0.8,0.3-1.6,0.5-2.3,0.5C480.4,615.5,479.5,615.2,478.9,614.5z"/>
	<path class="st2" d="M507.7,603.2h-17.5c0.1,3.7,1,6.5,2.6,8.5c1.6,1.9,3.7,2.9,6.3,2.9c1.4,0,2.7-0.2,3.7-0.7
		c1.1-0.4,2.2-1.1,3.3-2.1l0.6,0.8c-1.2,1-2.3,1.7-3.5,2.2c-1.2,0.5-2.6,0.7-4.1,0.7c-3.1,0-5.5-1.1-7.3-3.4
		c-1.8-2.2-2.7-5.4-2.7-9.4c0-2.7,0.4-5,1.2-7c0.8-2,1.9-3.5,3.3-4.6c1.4-1.1,3.1-1.6,5.1-1.6c3,0,5.3,1.1,6.8,3.2s2.3,5,2.3,8.6
		C507.8,601.9,507.8,602.5,507.7,603.2z M506.8,601c0-3.2-0.7-5.7-2-7.6c-1.3-1.9-3.3-2.8-6-2.8c-2.5,0-4.5,1-6.1,3
		s-2.4,4.9-2.5,8.7h16.5V601z"/>
	<path class="st2" d="M550.1,615.1v-16.8h-17.7v16.8h-1.1v-32.8h1.1v14.9h17.7v-14.9h1.1v32.8H550.1z"/>
	<path class="st2" d="M577.4,613.3c0.3,0.7,0.9,1.2,1.8,1.5l-0.3,0.8c-1-0.3-1.7-0.8-2.2-1.6c-0.5-0.7-0.7-1.8-0.7-3.3
		c-1.8,3.2-4.5,4.9-8.1,4.9c-2.3,0-4.2-0.7-5.5-2c-1.3-1.3-2-3.1-2-5.4c0-2.5,0.9-4.5,2.7-5.8c1.8-1.4,4.2-2.1,7.2-2.1h5.7v-3
		c0-2.2-0.5-3.9-1.5-5c-1-1.1-2.6-1.7-4.9-1.7c-2,0-4.3,0.5-6.9,1.6l-0.3-0.9c2.6-1.1,5-1.6,7.2-1.6c2.6,0,4.5,0.6,5.7,1.9
		c1.2,1.3,1.8,3.2,1.8,5.7v12.6C576.9,611.4,577.1,612.6,577.4,613.3z M572.6,613.2c1.3-0.9,2.4-2.2,3.2-3.9v-8.1h-5.5
		c-2.8,0-5,0.6-6.5,1.8c-1.6,1.2-2.3,2.9-2.3,5.2c0,2,0.6,3.6,1.7,4.7s2.7,1.7,4.7,1.7C569.8,614.5,571.4,614.1,572.6,613.2z"/>
	<path class="st2" d="M588.5,614.5c-0.6-0.7-0.9-1.6-0.9-3v-31.9l1.1-0.1v32c0,2,0.8,3,2.5,3c0.7,0,1.3-0.1,1.9-0.4l0.3,0.9
		c-0.8,0.3-1.6,0.5-2.3,0.5C590,615.5,589.2,615.2,588.5,614.5z"/>
	<path class="st2" d="M601.8,614.5c-0.6-0.7-0.9-1.6-0.9-3v-31.9l1.1-0.1v32c0,2,0.8,3,2.5,3c0.7,0,1.3-0.1,1.9-0.4l0.3,0.9
		c-0.8,0.3-1.6,0.5-2.3,0.5C603.3,615.5,602.5,615.2,601.8,614.5z"/>
	<path class="st2" d="M630.6,603.2h-17.5c0.1,3.7,1,6.5,2.6,8.5c1.6,1.9,3.7,2.9,6.3,2.9c1.4,0,2.7-0.2,3.7-0.7
		c1.1-0.4,2.2-1.1,3.3-2.1l0.6,0.8c-1.2,1-2.3,1.7-3.5,2.2c-1.2,0.5-2.6,0.7-4.1,0.7c-3.1,0-5.5-1.1-7.3-3.4
		c-1.8-2.2-2.7-5.4-2.7-9.4c0-2.7,0.4-5,1.2-7c0.8-2,1.9-3.5,3.3-4.6c1.4-1.1,3.1-1.6,5.1-1.6c3,0,5.3,1.1,6.8,3.2s2.3,5,2.3,8.6
		C630.7,601.9,630.7,602.5,630.6,603.2z M629.7,601c0-3.2-0.7-5.7-2-7.6c-1.3-1.9-3.3-2.8-6-2.8c-2.5,0-4.5,1-6.1,3
		s-2.4,4.9-2.5,8.7h16.5V601z"/>
</g>
</svg>
